<?xml version="1.0" encoding="UTF-8" standalone="no"?>
<!DOCTYPE svg PUBLIC "-//W3C//DTD SVG 1.1//EN"
 "http://www.w3.org/Graphics/SVG/1.1/DTD/svg11.dtd">
<!-- Generated by graphviz version 12.1.1 (20240910.0053)
 -->
<!-- Title: INFRA Pages: 1 -->
<svg width="911pt" height="512pt"
 viewBox="0.00 0.00 911.02 512.00" xmlns="http://www.w3.org/2000/svg" xmlns:xlink="http://www.w3.org/1999/xlink">
<g id="graph0" class="graph" transform="scale(1 1) rotate(0) translate(4 508)">
<title>INFRA</title>
<polygon fill="white" stroke="none" points="-4,4 -4,-508 907.02,-508 907.02,4 -4,4"/>
<!-- append&#45;resource&#45;group -->
<g id="node1" class="node">
<title>append&#45;resource&#45;group</title>
<path fill="#e6e6e6" stroke="black" stroke-width="2" d="M484.1,-72C484.1,-72 325.59,-72 325.59,-72 319.59,-72 313.59,-66 313.59,-60 313.59,-60 313.59,-12 313.59,-12 313.59,-6 319.59,0 325.59,0 325.59,0 484.1,0 484.1,0 490.1,0 496.1,-6 496.1,-12 496.1,-12 496.1,-60 496.1,-60 496.1,-66 490.1,-72 484.1,-72"/>
<text text-anchor="middle" x="404.84" y="-40.2" font-family="Arial" font-size="14.00">append&#45;resource&#45;group</text>
<text text-anchor="middle" x="404.84" y="-23.4" font-family="Arial" font-size="14.00">(azurerm_resource_group)</text>
</g>
<!-- appendstorageacc -->
<g id="node2" class="node">
<title>appendstorageacc</title>
<path fill="#fff5cd" stroke="black" stroke-width="2" d="M378.83,-281.45C378.83,-285.07 336.7,-288 284.84,-288 232.98,-288 190.86,-285.07 190.86,-281.45 190.86,-281.45 190.86,-222.55 190.86,-222.55 190.86,-218.93 232.98,-216 284.84,-216 336.7,-216 378.83,-218.93 378.83,-222.55 378.83,-222.55 378.83,-281.45 378.83,-281.45"/>
<path fill="none" stroke="black" stroke-width="2" d="M378.83,-281.45C378.83,-277.84 336.7,-274.91 284.84,-274.91 232.98,-274.91 190.86,-277.84 190.86,-281.45"/>
<text text-anchor="middle" x="284.84" y="-256.2" font-family="Arial" font-size="14.00">appendstorageacc</text>
<text text-anchor="middle" x="284.84" y="-239.4" font-family="Arial" font-size="14.00">(azurerm_storage_account)</text>
</g>
<!-- appendstorageacc&#45;&gt;append&#45;resource&#45;group -->
<g id="edge1" class="edge">
<title>appendstorageacc&#45;&gt;append&#45;resource&#45;group</title>
<path fill="none" stroke="black" d="M304.66,-215.66C325.11,-179.19 357.1,-122.15 379.41,-82.36"/>
<polygon fill="black" stroke="black" points="382.42,-84.14 384.26,-73.71 376.32,-80.72 382.42,-84.14"/>
</g>
<!-- append_static_website -->
<g id="node3" class="node">
<title>append_static_website</title>
<path fill="#fff5cd" stroke="black" stroke-width="2" d="M283.69,-389.45C283.69,-393.07 220.11,-396 141.84,-396 63.58,-396 0,-393.07 0,-389.45 0,-389.45 0,-330.55 0,-330.55 0,-326.93 63.58,-324 141.84,-324 220.11,-324 283.69,-326.93 283.69,-330.55 283.69,-330.55 283.69,-389.45 283.69,-389.45"/>
<path fill="none" stroke="black" stroke-width="2" d="M283.69,-389.45C283.69,-385.84 220.11,-382.91 141.84,-382.91 63.58,-382.91 0,-385.84 0,-389.45"/>
<text text-anchor="middle" x="141.84" y="-364.2" font-family="Arial" font-size="14.00">append_static_website</text>
<text text-anchor="middle" x="141.84" y="-347.4" font-family="Arial" font-size="14.00">(azurerm_storage_account_static_website)</text>
</g>
<!-- append_static_website&#45;&gt;appendstorageacc -->
<g id="edge2" class="edge">
<title>append_static_website&#45;&gt;appendstorageacc</title>
<path fill="none" stroke="black" d="M189.46,-323.7C201.88,-314.5 215.39,-304.48 228.23,-294.97"/>
<polygon fill="black" stroke="black" points="230.27,-297.81 236.22,-289.04 226.1,-292.19 230.27,-297.81"/>
</g>
<!-- append_blob -->
<g id="node4" class="node">
<title>append_blob</title>
<path fill="#fff5cd" stroke="black" stroke-width="2" d="M309.55,-497.45C309.55,-501.07 272.48,-504 226.84,-504 181.21,-504 144.14,-501.07 144.14,-497.45 144.14,-497.45 144.14,-438.55 144.14,-438.55 144.14,-434.93 181.21,-432 226.84,-432 272.48,-432 309.55,-434.93 309.55,-438.55 309.55,-438.55 309.55,-497.45 309.55,-497.45"/>
<path fill="none" stroke="black" stroke-width="2" d="M309.55,-497.45C309.55,-493.84 272.48,-490.91 226.84,-490.91 181.21,-490.91 144.14,-493.84 144.14,-497.45"/>
<text text-anchor="middle" x="226.84" y="-472.2" font-family="Arial" font-size="14.00">append_blob</text>
<text text-anchor="middle" x="226.84" y="-455.4" font-family="Arial" font-size="14.00">(azurerm_storage_blob)</text>
</g>
<!-- append_blob&#45;&gt;appendstorageacc -->
<g id="edge3" class="edge">
<title>append_blob&#45;&gt;appendstorageacc</title>
<path fill="none" stroke="black" d="M269.19,-431.73C278.79,-421.32 287.67,-409.16 292.84,-396 304.89,-365.35 302.33,-328.15 297.06,-299.37"/>
<polygon fill="black" stroke="black" points="300.55,-298.99 295.14,-289.88 293.69,-300.37 300.55,-298.99"/>
</g>
<!-- append_blob&#45;&gt;append_static_website -->
<g id="edge4" class="edge">
<title>append_blob&#45;&gt;append_static_website</title>
<path fill="none" stroke="black" d="M198.54,-431.7C191.66,-423.12 184.22,-413.84 177.06,-404.91"/>
<polygon fill="black" stroke="black" points="179.96,-402.94 170.97,-397.32 174.5,-407.31 179.96,-402.94"/>
</g>
<!-- append&#45;cdn&#45;profile -->
<g id="node5" class="node">
<title>append&#45;cdn&#45;profile</title>
<path fill="#e78f81" stroke="black" stroke-width="2" d="M621.23,-180C621.23,-180 428.46,-180 428.46,-180 422.46,-180 416.46,-174 416.46,-168 416.46,-168 416.46,-120 416.46,-120 416.46,-114 422.46,-108 428.46,-108 428.46,-108 621.23,-108 621.23,-108 627.23,-108 633.23,-114 633.23,-120 633.23,-120 633.23,-168 633.23,-168 633.23,-174 627.23,-180 621.23,-180"/>
<text text-anchor="middle" x="524.84" y="-148.2" font-family="Arial" font-size="14.00">append&#45;cdn&#45;profile</text>
<text text-anchor="middle" x="524.84" y="-131.4" font-family="Arial" font-size="14.00">(azurerm_cdn_frontdoor_profile)</text>
</g>
<!-- append&#45;cdn&#45;profile&#45;&gt;append&#45;resource&#45;group -->
<g id="edge5" class="edge">
<title>append&#45;cdn&#45;profile&#45;&gt;append&#45;resource&#45;group</title>
<path fill="none" stroke="black" d="M484.89,-107.7C474.66,-98.67 463.57,-88.87 452.98,-79.52"/>
<polygon fill="black" stroke="black" points="455.57,-77.14 445.76,-73.14 450.94,-82.39 455.57,-77.14"/>
</g>
<!-- append&#45;cdn&#45;endpoint -->
<g id="node6" class="node">
<title>append&#45;cdn&#45;endpoint</title>
<path fill="#e78f81" stroke="black" stroke-width="2" d="M891.02,-288C891.02,-288 682.67,-288 682.67,-288 676.67,-288 670.67,-282 670.67,-276 670.67,-276 670.67,-228 670.67,-228 670.67,-222 676.67,-216 682.67,-216 682.67,-216 891.02,-216 891.02,-216 897.02,-216 903.02,-222 903.02,-228 903.02,-228 903.02,-276 903.02,-276 903.02,-282 897.02,-288 891.02,-288"/>
<text text-anchor="middle" x="786.84" y="-256.2" font-family="Arial" font-size="14.00">append&#45;cdn&#45;endpoint</text>
<text text-anchor="middle" x="786.84" y="-239.4" font-family="Arial" font-size="14.00">(azurerm_cdn_frontdoor_endpoint)</text>
</g>
<!-- append&#45;cdn&#45;endpoint&#45;&gt;append&#45;cdn&#45;profile -->
<g id="edge6" class="edge">
<title>append&#45;cdn&#45;endpoint&#45;&gt;append&#45;cdn&#45;profile</title>
<path fill="none" stroke="black" d="M699.24,-215.56C674.77,-205.66 648.02,-194.83 622.98,-184.7"/>
<polygon fill="black" stroke="black" points="624.35,-181.48 613.77,-180.98 621.73,-187.97 624.35,-181.48"/>
</g>
<!-- append&#45;cdn&#45;origin&#45;group -->
<g id="node7" class="node">
<title>append&#45;cdn&#45;origin&#45;group</title>
<path fill="#e78f81" stroke="black" stroke-width="2" d="M641.08,-288C641.08,-288 408.61,-288 408.61,-288 402.61,-288 396.61,-282 396.61,-276 396.61,-276 396.61,-228 396.61,-228 396.61,-222 402.61,-216 408.61,-216 408.61,-216 641.08,-216 641.08,-216 647.08,-216 653.08,-222 653.08,-228 653.08,-228 653.08,-276 653.08,-276 653.08,-282 647.08,-288 641.08,-288"/>
<text text-anchor="middle" x="524.84" y="-256.2" font-family="Arial" font-size="14.00">append&#45;cdn&#45;origin&#45;group</text>
<text text-anchor="middle" x="524.84" y="-239.4" font-family="Arial" font-size="14.00">(azurerm_cdn_frontdoor_origin_group)</text>
</g>
<!-- append&#45;cdn&#45;origin&#45;group&#45;&gt;append&#45;cdn&#45;profile -->
<g id="edge7" class="edge">
<title>append&#45;cdn&#45;origin&#45;group&#45;&gt;append&#45;cdn&#45;profile</title>
<path fill="none" stroke="black" d="M524.84,-215.7C524.84,-207.93 524.84,-199.57 524.84,-191.43"/>
<polygon fill="black" stroke="black" points="528.34,-191.66 524.84,-181.66 521.34,-191.66 528.34,-191.66"/>
</g>
<!-- append&#45;cdn&#45;origin -->
<g id="node8" class="node">
<title>append&#45;cdn&#45;origin</title>
<path fill="#e78f81" stroke="black" stroke-width="2" d="M593.28,-396C593.28,-396 404.41,-396 404.41,-396 398.41,-396 392.41,-390 392.41,-384 392.41,-384 392.41,-336 392.41,-336 392.41,-330 398.41,-324 404.41,-324 404.41,-324 593.28,-324 593.28,-324 599.28,-324 605.28,-330 605.28,-336 605.28,-336 605.28,-384 605.28,-384 605.28,-390 599.28,-396 593.28,-396"/>
<text text-anchor="middle" x="498.84" y="-364.2" font-family="Arial" font-size="14.00">append&#45;cdn&#45;origin</text>
<text text-anchor="middle" x="498.84" y="-347.4" font-family="Arial" font-size="14.00">(azurerm_cdn_frontdoor_origin)</text>
</g>
<!-- append&#45;cdn&#45;origin&#45;&gt;appendstorageacc -->
<g id="edge9" class="edge">
<title>append&#45;cdn&#45;origin&#45;&gt;appendstorageacc</title>
<path fill="none" stroke="black" d="M427.29,-323.56C406.93,-313.47 384.63,-302.43 363.86,-292.14"/>
<polygon fill="black" stroke="black" points="365.66,-289.13 355.15,-287.82 362.56,-295.4 365.66,-289.13"/>
</g>
<!-- append&#45;cdn&#45;origin&#45;&gt;append&#45;cdn&#45;origin&#45;group -->
<g id="edge8" class="edge">
<title>append&#45;cdn&#45;origin&#45;&gt;append&#45;cdn&#45;origin&#45;group</title>
<path fill="none" stroke="black" d="M507.5,-323.7C509.43,-315.84 511.51,-307.38 513.52,-299.15"/>
<polygon fill="black" stroke="black" points="516.88,-300.16 515.86,-289.61 510.08,-298.49 516.88,-300.16"/>
</g>
<!-- append&#45;cdn&#45;route -->
<g id="node9" class="node">
<title>append&#45;cdn&#45;route</title>
<path fill="#e78f81" stroke="black" stroke-width="2" d="M726.12,-504C726.12,-504 539.57,-504 539.57,-504 533.57,-504 527.57,-498 527.57,-492 527.57,-492 527.57,-444 527.57,-444 527.57,-438 533.57,-432 539.57,-432 539.57,-432 726.12,-432 726.12,-432 732.12,-432 738.12,-438 738.12,-444 738.12,-444 738.12,-492 738.12,-492 738.12,-498 732.12,-504 726.12,-504"/>
<text text-anchor="middle" x="632.84" y="-472.2" font-family="Arial" font-size="14.00">append&#45;cdn&#45;route</text>
<text text-anchor="middle" x="632.84" y="-455.4" font-family="Arial" font-size="14.00">(azurerm_cdn_frontdoor_route)</text>
</g>
<!-- append&#45;cdn&#45;route&#45;&gt;append&#45;cdn&#45;endpoint -->
<g id="edge10" class="edge">
<title>append&#45;cdn&#45;route&#45;&gt;append&#45;cdn&#45;endpoint</title>
<path fill="none" stroke="black" d="M658.27,-431.66C684.69,-394.95 726.09,-337.42 754.75,-297.6"/>
<polygon fill="black" stroke="black" points="757.49,-299.78 760.49,-289.62 751.81,-295.69 757.49,-299.78"/>
</g>
<!-- append&#45;cdn&#45;route&#45;&gt;append&#45;cdn&#45;origin&#45;group -->
<g id="edge11" class="edge">
<title>append&#45;cdn&#45;route&#45;&gt;append&#45;cdn&#45;origin&#45;group</title>
<path fill="none" stroke="black" d="M635.26,-431.78C635.77,-401.33 632.59,-357.13 613.84,-324 607.96,-313.59 599.89,-304.14 590.99,-295.77"/>
<polygon fill="black" stroke="black" points="593.57,-293.39 583.76,-289.4 588.94,-298.64 593.57,-293.39"/>
</g>
<!-- append&#45;cdn&#45;route&#45;&gt;append&#45;cdn&#45;origin -->
<g id="edge12" class="edge">
<title>append&#45;cdn&#45;route&#45;&gt;append&#45;cdn&#45;origin</title>
<path fill="none" stroke="black" d="M588.22,-431.7C576.7,-422.59 564.17,-412.68 552.25,-403.24"/>
<polygon fill="black" stroke="black" points="554.47,-400.54 544.46,-397.08 550.13,-406.03 554.47,-400.54"/>
</g>
</g>
</svg>
